<svg xmlns="http://www.w3.org/2000/svg" style="display: none;">
    <!-- Navigation Icons -->
    <symbol id="icon-home" viewBox="0 0 24 24">
        <path fill="currentColor" d="M10 20v-6h4v6h5v-8h3L12 3 2 12h3v8z"/>
    </symbol>
    
    <symbol id="icon-users" viewBox="0 0 24 24">
        <path fill="currentColor" d="M16 11c1.66 0 2.99-1.34 2.99-3S17.66 5 16 5c-1.66 0-3 1.34-3 3s1.34 3 3 3zm-8 0c1.66 0 2.99-1.34 2.99-3S9.66 5 8 5C6.34 5 5 6.34 5 8s1.34 3 3 3zm0 2c-2.33 0-7 1.17-7 3.5V19h14v-2.5c0-2.33-4.67-3.5-7-3.5zm8 0c-.29 0-.62.02-.97.05 1.16.84 1.97 1.97 3.45V19h6v-2.5c0-2.33-4.67-3.5-7-3.5z"/>
    </symbol>
    
    <symbol id="icon-folder" viewBox="0 0 24 24">
        <path fill="currentColor" d="M10 4H4c-1.1 0-1.99.9-1.99 2L2 18c0 1.1.9 2 2 2h16c1.1 0 2-.9 2-2V8c0-1.1-.9-2-2-2h-8l-2-2z"/>
    </symbol>
    
    <symbol id="icon-chart" viewBox="0 0 24 24">
        <path fill="currentColor" d="M3.5 18.49l6-6.01 4 4L22 6.92l-1.41-1.41-7.09 7.97-4-4L2 16.99z"/>
    </symbol>
    
    <symbol id="icon-database" viewBox="0 0 24 24">
        <path fill="currentColor" d="M12 3C7.58 3 4 4.79 4 7v10c0 2.21 3.58 4 8 4s8-1.79 8-4V7c0-2.21-3.58-4-8-4z"/>
    </symbol>
    
    <!-- Action Icons -->
    <symbol id="icon-check" viewBox="0 0 24 24">
        <path fill="currentColor" d="M9 16.17L4.83 12l-1.42 1.41L9 19 21 7l-1.41-1.41z"/>
    </symbol>
    
    <symbol id="icon-warning" viewBox="0 0 24 24">
        <path fill="currentColor" d="M1 21h22L12 2 1 21zm12-3h-2v-2h2v2zm0-4h-2v-4h2v4z"/>
    </symbol>
    
    <symbol id="icon-edit" viewBox="0 0 24 24">
        <path fill="currentColor" d="M3 17.25V21h3.75L17.81 9.94l-3.75-3.75L3 17.25zM20.71 7.04c.39-.39.39-1.02 0-1.41l-2.34-2.34c-.39-.39-1.02-.39-1.41 0l-1.83 1.83 3.75 3.75 1.83-1.83z"/>
    </symbol>
    
    <symbol id="icon-delete" viewBox="0 0 24 24">
        <path fill="currentColor" d="M6 19c0 1.1.9 2 2 2h8c1.1 0 2-.9 2-2V7H6v12zM19 4h-3.5l-1-1h-5l-1 1H5v2h14V4z"/>
    </symbol>
    
    <symbol id="icon-search" viewBox="0 0 24 24">
        <path fill="currentColor" d="M15.5 14h-.79l-.28-.27C15.41 12.59 16 11.11 16 9.5 16 5.91 13.09 3 9.5 3S3 5.91 3 9.5 5.91 16 9.5 16c1.61 0 3.09-.59 4.23-1.57l.27.28v.79l5 4.99L20.49 19l-4.99-5zm-6 0C7.01 14 5 11.99 5 9.5S7.01 5 9.5 5 14 7.01 14 9.5 11.99 14 9.5 14z"/>
    </symbol>
    
    <symbol id="icon-reset" viewBox="0 0 24 24">
        <path fill="currentColor" d="M12 5V1L7 6l5 5V7c3.31 0 6 2.69 6 6s-2.69 6-6 6-6-2.69-6-6H4c0 4.42 3.58 8 8 8s8-3.58 8-8-3.58-8-8-8z"/>
    </symbol>
    
    <symbol id="icon-filter" viewBox="0 0 24 24">
        <path fill="currentColor" d="M10 18h4v-2h-4v2zM3 6v2h18V6H3zm3 7h12v-2H6v2z"/>
    </symbol>
    
    <symbol id="icon-close" viewBox="0 0 24 24">
        <path fill="currentColor" d="M19 6.41L17.59 5 12 10.59 6.41 5 5 6.41 10.59 12 5 17.59 6.41 19 12 13.41 17.59 19 19 17.59 13.41 12z"/>
    </symbol>
    
    <symbol id="icon-arrow-left" viewBox="0 0 24 24">
        <path fill="currentColor" d="M20 11H7.83l5.59-5.59L12 4l-8 8 8 8 1.41-1.41L7.83 13H20v-2z"/>
    </symbol>
    
    <symbol id="icon-arrow-right" viewBox="0 0 24 24">
        <path fill="currentColor" d="M12 4l-1.41 1.41L16.17 11H4v2h12.17l-5.58 5.59L12 20l8-8z"/>
    </symbol>
    
    <symbol id="icon-calendar" viewBox="0 0 24 24">
        <path fill="currentColor" d="M19 3h-1V1h-2v2H8V1H6v2H5c-1.11 0-1.99.9-1.99 2L3 19c0 1.1.89 2 2 2h14c1.1 0 2-.9 2-2V5c0-1.1-.9-2-2-2zm0 16H5V8h14v11zM9 10H7v2h2v-2zm4 0h-2v2h2v-2zm4 0h-2v2h2v-2zm-8 4H7v2h2v-2zm4 0h-2v2h2v-2zm4 0h-2v2h2v-2z"/>
    </symbol>
    
    <symbol id="icon-visibility" viewBox="0 0 24 24">
        <path fill="currentColor" d="M12 4.5C7 4.5 2.73 7.61 1 12c1.73 4.39 6 7.5 11 7.5s9.27-3.11 11-7.5c-1.73-4.39-6-7.5-11-7.5zM12 17c-2.76 0-5-2.24-5-5s2.24-5 5-5 5 2.24 5 5-2.24 5-5 5zm0-8c-1.66 0-3 1.34-3 3s1.34 3 3 3 3-1.34 3-3-1.34-3-3-3z"/>
    </symbol>
    
    <symbol id="icon-visibility-off" viewBox="0 0 24 24">
        <path fill="currentColor" d="M12 7c2.76 0 5 2.24 5 5 0 .65-.13 1.26-.36 1.83l2.92 2.92c1.51-1.26 2.7-2.89 3.43-4.75-1.73-4.39-6-7.5-11-7.5-1.4 0-2.74.25-3.98.7l2.16 2.16C10.74 7.13 11.35 7 12 7zM2 4.27l2.28 2.28.46.46C3.08 8.3 1.78 10.02 1 12c1.73 4.39 6 7.5 11 7.5 1.55 0 3.03-.3 4.38-.84l.42.42L19.73 22 21 20.73 3.27 3 2 4.27zM7.53 9.8l1.55 1.55c-.05.21-.08.43-.08.65 0 1.66 1.34 3 3 3 .22 0 .44-.03.65-.08l1.55 1.55c-.67.33-1.41.53-2.2.53-2.76 0-5-2.24-5-5 0-.79.2-1.53.53-2.2zm4.31-.78l3.15 3.15.02-.16c0-1.66-1.34-3-3-3l-.17.01z"/>
    </symbol>
    
    <symbol id="icon-person" viewBox="0 0 24 24">
        <path fill="currentColor" d="M12 12c2.21 0 4-1.79 4-4s-1.79-4-4-4-4 1.79-4 4 1.79 4 4 4zm0 2c-2.67 0-8 1.34-8 4v2h16v-2c0-2.66-5.33-4-8-4z"/>
    </symbol>
    
    <symbol id="icon-security" viewBox="0 0 24 24">
        <path fill="currentColor" d="M12 1L3 5v6c0 5.55 3.84 10.74 9 12 5.16-1.26 9-6.45 9-12V5l-9-4zm0 10.99h7c-.53 4.12-3.28 7.79-7 8.94V12H5V6.3l7-3.11v8.8z"/>
    </symbol>
    
    <symbol id="icon-cloud" viewBox="0 0 24 24">
        <path fill="currentColor" d="M19.35 10.04C18.67 6.59 15.64 4 12 4 9.11 4 6.6 5.64 5.35 8.04 2.34 8.36 0 10.91 0 14c0 3.31 2.69 6 6 6h13c2.76 0 5-2.24 5-5 0-2.64-2.05-4.78-4.65-4.96z"/>
    </symbol>
    
    <symbol id="icon-bluetooth" viewBox="0 0 24 24">
        <path fill="currentColor" d="M17.71 7.71L12 2h-1v7.59L6.41 5 5 6.41 10.59 12 5 17.59 6.41 19 11 14.41V22h1l5.71-5.71-4.3-4.29 4.3-4.29zM13 5.83l1.88 1.88L13 9.59V5.83zm1.88 10.46L13 18.17v-3.76l1.88 1.88z"/>
    </symbol>
    
    <symbol id="icon-help" viewBox="0 0 24 24">
        <path fill="currentColor" d="M12 2C6.48 2 2 6.48 2 12s4.48 10 10 10 10-4.48 10-10S17.52 2 12 2zm1 17h-2v-2h2v2zm2.07-7.75l-.9.92C13.45 12.9 13 13.5 13 15h-2v-.5c0-1.1.45-2.1 1.17-2.83l1.24-1.26c.37-.36.59-.86.59-1.41 0-1.1-.9-2-2-2s-2 .9-2 2H8c0-2.21 1.79-4 4-4s4 1.79 4 4c0 .88-.36 1.68-.93 2.25z"/>
    </symbol>
    
    <symbol id="icon-info" viewBox="0 0 24 24">
        <path fill="currentColor" d="M12 2C6.48 2 2 6.48 2 12s4.48 10 10 10 10-4.48 10-10S17.52 2 12 2zm1 15h-2v-6h2v6zm0-8h-2V7h2v2z"/>
    </symbol>
    
    <symbol id="icon-add" viewBox="0 0 24 24">
        <path fill="currentColor" d="M19 13h-6v6h-2v-6H5v-2h6V5h2v6h6v2z"/>
    </symbol>
    
    <symbol id="icon-more" viewBox="0 0 24 24">
        <path fill="currentColor" d="M6 10c-1.1 0-2 .9-2 2s.9 2 2 2 2-.9 2-2-.9-2-2-2zm12 0c-1.1 0-2 .9-2 2s.9 2 2 2 2-.9 2-2-.9-2-2-2zm-6 0c-1.1 0-2 .9-2 2s.9 2 2 2 2-.9 2-2-.9-2-2-2z"/>
    </symbol>
    
    <symbol id="icon-download" viewBox="0 0 24 24">
        <path fill="currentColor" d="M19 9h-4V3H9v6H5l7 7 7-7zM5 18v2h14v-2H5z"/>
    </symbol>
    
    <symbol id="icon-upload" viewBox="0 0 24 24">
        <path fill="currentColor" d="M9 16h6v-6h4l-7-7-7 7h4zm-4 2h14v2H5z"/>
    </symbol>
    
    <symbol id="icon-print" viewBox="0 0 24 24">
        <path fill="currentColor" d="M19 8H5c-1.66 0-3 1.34-3 3v6h4v4h12v-4h4v-6c0-1.66-1.34-3-3-3zm-3 11H8v-5h8v5zm3-7c-.55 0-1-.45-1-1s.45-1 1-1 1 .45 1 1-.45 1-1 1zm-1-9H6v4h12V3z"/>
    </symbol>
    
    <symbol id="icon-refresh" viewBox="0 0 24 24">
        <path fill="currentColor" d="M17.65 6.35C16.2 4.9 14.21 4 12 4c-4.42 0-7.93 3.58-7.93 8s3.51 8 7.93 8c3.73 0 6.84-2.55 7.73-6h-2.08c-.82 2.33-3.04 4-5.65 4-3.31 0-6-2.69-6-6s2.69-6 6-6c1.66 0 3.14.69 4.22 1.78L13 11h7V4l-2.35 2.35z"/>
    </symbol>
    
    <symbol id="icon-settings" viewBox="0 0 24 24">
        <path fill="currentColor" d="M19.14 12.94c.04-.3.06-.61.06-.94 0-.32-.02-.64-.07-.94l2.03-1.58c.18-.14.23-.41.12-.61l-1.92-3.32c-.12-.22-.37-.29-.59-.22l-2.39.96c-.5-.38-1.03-.7-1.62-.94l-.36-2.54c-.04-.24-.24-.41-.48-.41h-3.84c-.24 0-.43.17-.47.41l-.36 2.54c-.59.24-1.13.57-1.62.94l-2.39-.96c-.22-.08-.47 0-.59.22L5.04 8.87c-.12.21-.08.47.12.61l2.03 1.58c-.05.3-.09.63-.09.94s.02.64.07.94l-2.03 1.58c-.18.14-.23.41-.12.61l1.92 3.32c.12.22.37.29.59.22l2.39-.96c.5.38 1.03.7 1.62.94l.36 2.54c.05.24.24.41.48.41h3.84c.24 0 .44-.17.47-.41l.36-2.54c.59-.24 1.13-.58 1.62-.94l2.39.96c.22.08.47 0 .59-.22l1.92-3.32c.12-.22.07-.47-.12-.61l-2.01-1.58zM12 15.6c-1.98 0-3.6-1.62-3.6-3.6s1.62-3.6 3.6-3.6 3.6 1.62 3.6 3.6-1.62 3.6-3.6 3.6z"/>
    </symbol>
    
    <symbol id="icon-logout" viewBox="0 0 24 24">
        <path fill="currentColor" d="M10.09 15.59L11.5 17l5-5-5-5-1.41 1.41L12.67 11H3v2h9.67l-2.58 2.59zM19 3H5c-1.11 0-2 .9-2 2v4h2V5h14v14H5v-4H3v4c0 1.1.89 2 2 2h14c1.1 0 2-.9 2-2V5c0-1.1-.9-2-2-2z"/>
    </symbol>

    <symbol id="icon-compress" viewBox="0 0 24 24">
        <path fill="currentColor" d="M4 9h16v2H4zm0 4h10v2H4z"/>
        <path fill="currentColor" d="M16 13l4 4m0 0l-4 4m4-4h-8" stroke="currentColor" stroke-width="2" fill="none"/>
    </symbol>

    <symbol id="icon-activity" viewBox="0 0 24 24">
        <path fill="currentColor" d="M13 2.05v3.03c3.39.49 6 3.39 6 6.92 0 .9-.18 1.75-.5 2.54l2.63 1.53c.56-1.24.87-2.6.87-4.07 0-5.29-3.87-9.67-9-9.95zM12 19c-3.87 0-7-3.13-7-7 0-3.53 2.61-6.43 6-6.92V2.05c-5.13.28-9 4.66-9 9.95 0 5.52 4.47 10 9.99 10 3.31 0 6.24-1.61 8.06-4.09l-2.6-1.53C16.17 17.98 14.21 19 12 19z"/>
    </symbol>

    <symbol id="icon-storage" viewBox="0 0 24 24">
        <path fill="currentColor" d="M2 20h20v-4H2v4zm2-3h2v2H4v-2zM2 4v4h20V4H2zm4 3H4V5h2v2zm-4 7h20v-4H2v4zm2-3h2v2H4v-2z"/>
    </symbol>
</svg>
